<mxfile host="app.diagrams.net" agent="Mozilla/5.0 (Windows NT 10.0; Win64; x64) AppleWebKit/537.36 (KHTML, like Gecko) Chrome/133.0.0.0 Safari/537.36" version="26.1.0">
  <diagram id="C5RBs43oDa-KdzZeNtuy" name="Page-1">
    <mxGraphModel dx="1909" dy="1013" grid="1" gridSize="10" guides="1" tooltips="1" connect="1" arrows="1" fold="1" page="1" pageScale="1" pageWidth="827" pageHeight="1169" math="0" shadow="0">
      <root>
        <mxCell id="WIyWlLk6GJQsqaUBKTNV-0" />
        <mxCell id="WIyWlLk6GJQsqaUBKTNV-1" parent="WIyWlLk6GJQsqaUBKTNV-0" />
        <mxCell id="iXmqzpFQKqinNQqxrl1--34" style="edgeStyle=orthogonalEdgeStyle;rounded=0;orthogonalLoop=1;jettySize=auto;html=1;" parent="WIyWlLk6GJQsqaUBKTNV-1" source="iXmqzpFQKqinNQqxrl1--1" target="iXmqzpFQKqinNQqxrl1--32" edge="1">
          <mxGeometry relative="1" as="geometry" />
        </mxCell>
        <mxCell id="iXmqzpFQKqinNQqxrl1--1" value="&lt;p&gt;histograms.py&lt;/p&gt;" style="ellipse;whiteSpace=wrap;html=1;" parent="WIyWlLk6GJQsqaUBKTNV-1" vertex="1">
          <mxGeometry x="39.96" y="10" width="120" height="70" as="geometry" />
        </mxCell>
        <mxCell id="iXmqzpFQKqinNQqxrl1--26" style="edgeStyle=orthogonalEdgeStyle;rounded=0;orthogonalLoop=1;jettySize=auto;html=1;entryX=0.5;entryY=0;entryDx=0;entryDy=0;" parent="WIyWlLk6GJQsqaUBKTNV-1" source="iXmqzpFQKqinNQqxrl1--2" target="iXmqzpFQKqinNQqxrl1--25" edge="1">
          <mxGeometry relative="1" as="geometry" />
        </mxCell>
        <mxCell id="iXmqzpFQKqinNQqxrl1--2" value="import pygal" style="shape=parallelogram;perimeter=parallelogramPerimeter;whiteSpace=wrap;html=1;fixedSize=1;" parent="WIyWlLk6GJQsqaUBKTNV-1" vertex="1">
          <mxGeometry x="39.96" y="220" width="120" height="60" as="geometry" />
        </mxCell>
        <mxCell id="wzVWu2LCXRriYMG0dlIS-17" value="finished" style="edgeStyle=orthogonalEdgeStyle;rounded=0;orthogonalLoop=1;jettySize=auto;html=1;entryX=0;entryY=0.5;entryDx=0;entryDy=0;exitX=1;exitY=0.5;exitDx=0;exitDy=0;" parent="WIyWlLk6GJQsqaUBKTNV-1" source="ebi25rhOZYfi02CDMm35-2" target="wzVWu2LCXRriYMG0dlIS-16" edge="1">
          <mxGeometry relative="1" as="geometry">
            <mxPoint x="169.96000000000004" y="619.9999999999999" as="sourcePoint" />
            <Array as="points">
              <mxPoint x="230" y="560" />
            </Array>
          </mxGeometry>
        </mxCell>
        <mxCell id="ebi25rhOZYfi02CDMm35-1" style="edgeStyle=orthogonalEdgeStyle;rounded=0;orthogonalLoop=1;jettySize=auto;html=1;entryX=0.5;entryY=0;entryDx=0;entryDy=0;" edge="1" parent="WIyWlLk6GJQsqaUBKTNV-1" source="iXmqzpFQKqinNQqxrl1--25" target="ebi25rhOZYfi02CDMm35-0">
          <mxGeometry relative="1" as="geometry" />
        </mxCell>
        <mxCell id="iXmqzpFQKqinNQqxrl1--25" value="Define CSVs" style="shape=parallelogram;perimeter=parallelogramPerimeter;whiteSpace=wrap;html=1;fixedSize=1;" parent="WIyWlLk6GJQsqaUBKTNV-1" vertex="1">
          <mxGeometry x="39.96" y="320" width="120" height="60" as="geometry" />
        </mxCell>
        <mxCell id="iXmqzpFQKqinNQqxrl1--33" style="edgeStyle=orthogonalEdgeStyle;rounded=0;orthogonalLoop=1;jettySize=auto;html=1;entryX=0.5;entryY=0;entryDx=0;entryDy=0;" parent="WIyWlLk6GJQsqaUBKTNV-1" source="iXmqzpFQKqinNQqxrl1--32" target="iXmqzpFQKqinNQqxrl1--2" edge="1">
          <mxGeometry relative="1" as="geometry" />
        </mxCell>
        <mxCell id="iXmqzpFQKqinNQqxrl1--32" value="&lt;font face=&quot;Helvetica&quot;&gt;import pandas&lt;/font&gt;" style="shape=parallelogram;perimeter=parallelogramPerimeter;whiteSpace=wrap;html=1;fixedSize=1;" parent="WIyWlLk6GJQsqaUBKTNV-1" vertex="1">
          <mxGeometry x="39.96" y="120" width="120" height="60" as="geometry" />
        </mxCell>
        <mxCell id="ebi25rhOZYfi02CDMm35-16" style="edgeStyle=orthogonalEdgeStyle;rounded=0;orthogonalLoop=1;jettySize=auto;html=1;" edge="1" parent="WIyWlLk6GJQsqaUBKTNV-1" source="iXmqzpFQKqinNQqxrl1--83" target="ebi25rhOZYfi02CDMm35-7">
          <mxGeometry relative="1" as="geometry" />
        </mxCell>
        <mxCell id="iXmqzpFQKqinNQqxrl1--83" value="Create Scatterplot" style="rounded=0;whiteSpace=wrap;html=1;" parent="WIyWlLk6GJQsqaUBKTNV-1" vertex="1">
          <mxGeometry x="39.96000000000001" y="640" width="120" height="60" as="geometry" />
        </mxCell>
        <mxCell id="wzVWu2LCXRriYMG0dlIS-16" value="&lt;p&gt;End&lt;/p&gt;" style="ellipse;whiteSpace=wrap;html=1;" parent="WIyWlLk6GJQsqaUBKTNV-1" vertex="1">
          <mxGeometry x="240" y="525" width="120" height="70" as="geometry" />
        </mxCell>
        <mxCell id="ebi25rhOZYfi02CDMm35-0" value="Define Factors" style="shape=parallelogram;perimeter=parallelogramPerimeter;whiteSpace=wrap;html=1;fixedSize=1;" vertex="1" parent="WIyWlLk6GJQsqaUBKTNV-1">
          <mxGeometry x="39.96" y="420" width="120" height="60" as="geometry" />
        </mxCell>
        <mxCell id="ebi25rhOZYfi02CDMm35-4" style="edgeStyle=orthogonalEdgeStyle;rounded=0;orthogonalLoop=1;jettySize=auto;html=1;entryX=0.5;entryY=0;entryDx=0;entryDy=0;" edge="1" parent="WIyWlLk6GJQsqaUBKTNV-1" source="ebi25rhOZYfi02CDMm35-2" target="iXmqzpFQKqinNQqxrl1--83">
          <mxGeometry relative="1" as="geometry" />
        </mxCell>
        <mxCell id="ebi25rhOZYfi02CDMm35-2" value="Loop&lt;div&gt;Through&lt;br&gt;Years&lt;/div&gt;" style="rhombus;whiteSpace=wrap;html=1;" vertex="1" parent="WIyWlLk6GJQsqaUBKTNV-1">
          <mxGeometry x="59.96000000000001" y="520" width="80" height="80" as="geometry" />
        </mxCell>
        <mxCell id="ebi25rhOZYfi02CDMm35-3" style="edgeStyle=orthogonalEdgeStyle;rounded=0;orthogonalLoop=1;jettySize=auto;html=1;" edge="1" parent="WIyWlLk6GJQsqaUBKTNV-1" source="ebi25rhOZYfi02CDMm35-0">
          <mxGeometry relative="1" as="geometry">
            <mxPoint x="100" y="520" as="targetPoint" />
          </mxGeometry>
        </mxCell>
        <mxCell id="ebi25rhOZYfi02CDMm35-10" style="edgeStyle=orthogonalEdgeStyle;rounded=0;orthogonalLoop=1;jettySize=auto;html=1;" edge="1" parent="WIyWlLk6GJQsqaUBKTNV-1" source="ebi25rhOZYfi02CDMm35-7" target="ebi25rhOZYfi02CDMm35-9">
          <mxGeometry relative="1" as="geometry" />
        </mxCell>
        <mxCell id="ebi25rhOZYfi02CDMm35-7" value="Read CSV" style="shape=parallelogram;perimeter=parallelogramPerimeter;whiteSpace=wrap;html=1;fixedSize=1;" vertex="1" parent="WIyWlLk6GJQsqaUBKTNV-1">
          <mxGeometry x="200" y="640" width="120" height="60" as="geometry" />
        </mxCell>
        <mxCell id="ebi25rhOZYfi02CDMm35-12" value="" style="edgeStyle=orthogonalEdgeStyle;rounded=0;orthogonalLoop=1;jettySize=auto;html=1;" edge="1" parent="WIyWlLk6GJQsqaUBKTNV-1" source="ebi25rhOZYfi02CDMm35-9" target="ebi25rhOZYfi02CDMm35-11">
          <mxGeometry relative="1" as="geometry" />
        </mxCell>
        <mxCell id="ebi25rhOZYfi02CDMm35-9" value="Extract Factor Value and&amp;nbsp;&lt;div&gt;Happiness Score&lt;/div&gt;" style="rounded=0;whiteSpace=wrap;html=1;" vertex="1" parent="WIyWlLk6GJQsqaUBKTNV-1">
          <mxGeometry x="360" y="640" width="120" height="60" as="geometry" />
        </mxCell>
        <mxCell id="ebi25rhOZYfi02CDMm35-14" value="" style="edgeStyle=orthogonalEdgeStyle;rounded=0;orthogonalLoop=1;jettySize=auto;html=1;" edge="1" parent="WIyWlLk6GJQsqaUBKTNV-1" source="ebi25rhOZYfi02CDMm35-11" target="ebi25rhOZYfi02CDMm35-13">
          <mxGeometry relative="1" as="geometry" />
        </mxCell>
        <mxCell id="ebi25rhOZYfi02CDMm35-11" value="Add Data&lt;div&gt;to&lt;/div&gt;&lt;div&gt;Scatterplot&lt;/div&gt;" style="rounded=0;whiteSpace=wrap;html=1;" vertex="1" parent="WIyWlLk6GJQsqaUBKTNV-1">
          <mxGeometry x="520" y="640" width="120" height="60" as="geometry" />
        </mxCell>
        <mxCell id="ebi25rhOZYfi02CDMm35-15" style="edgeStyle=orthogonalEdgeStyle;rounded=0;orthogonalLoop=1;jettySize=auto;html=1;entryX=0;entryY=0.5;entryDx=0;entryDy=0;" edge="1" parent="WIyWlLk6GJQsqaUBKTNV-1" source="ebi25rhOZYfi02CDMm35-13" target="ebi25rhOZYfi02CDMm35-2">
          <mxGeometry relative="1" as="geometry">
            <Array as="points">
              <mxPoint x="580" y="880" />
              <mxPoint x="20" y="880" />
              <mxPoint x="20" y="560" />
            </Array>
          </mxGeometry>
        </mxCell>
        <mxCell id="ebi25rhOZYfi02CDMm35-13" value="save to&lt;div&gt;{output_file}.svg&lt;/div&gt;" style="rhombus;whiteSpace=wrap;html=1;" vertex="1" parent="WIyWlLk6GJQsqaUBKTNV-1">
          <mxGeometry x="540" y="740" width="80" height="80" as="geometry" />
        </mxCell>
      </root>
    </mxGraphModel>
  </diagram>
</mxfile>
